<svg xmlns="http://www.w3.org/2000/svg" xmlns:xlink="http://www.w3.org/1999/xlink" viewBox="0 0 866.38 345"><defs><style>.cls-1{fill:#fff;}.cls-2{fill:url(#linear-gradient);}</style><linearGradient id="linear-gradient" x1="2587" y1="-1917.99" x2="2528.43" y2="-1675.11" gradientTransform="translate(-468.56 3229.67) rotate(-45)" gradientUnits="userSpaceOnUse"><stop offset="0" stop-color="#ff512f"/><stop offset="1" stop-color="#cc3429"/></linearGradient></defs><g id="Layer_2" data-name="Layer 2"><g id="Layer_1-2" data-name="Layer 1"><path class="cls-1" d="M194.69,119.26v139.3H166.4V119.26Z"/><polygon class="cls-1" points="251.91 119.26 315.75 203.69 315.75 119.26 344.03 119.26 344.03 258.56 318.75 258.56 254.91 174.14 254.91 258.56 226.62 258.56 226.62 119.26 251.91 119.26"/><path class="cls-1" d="M226.62,258.56h0Z"/><path class="cls-1" d="M402.12,119.26l36,99.3,36-99.3h30.16L453.8,258.56H422.48L372,119.26Z"/><path class="cls-1" d="M560.56,119.26v139.3H532.27V119.26Z"/><path class="cls-1" d="M623.3,119.26l25.22,41.87,25.22-41.87h33.48l-42,69.65,42,69.65H673.74L648.52,216.7,623.3,258.56H589.82l42-69.65-42-69.65Z"/><path class="cls-1" d="M866.38,188.93a73,73,0,1,1-73-73A73,73,0,0,1,866.38,188.93Zm-73-44.93a44.93,44.93,0,0,0,0,89.86h0a44.93,44.93,0,0,0,0-89.86Z"/><path class="cls-2" d="M58.4,1a3.41,3.41,0,0,1,4.82,0L84,21.73a3.45,3.45,0,0,1,1,2.35V275.57a3.36,3.36,0,0,1-1.54,2.81,1.38,1.38,0,0,1-.53.34,2.94,2.94,0,0,1-1.35.26H56.69a2.59,2.59,0,0,1-1.61-.47,3.14,3.14,0,0,1-1.74-2.41l-.34-2V274l-.81-5.23v-.07l-.74-5.22-.8-5.23v-.06l-.8-5.23-.81-5.22-.8-5.23-.8-5.29L46.64,232l-.8-5.23L45,221.5l-.8-5.22v-.07L43.49,211l-.8-5.23-.81-5.29-.8-5.23-.8-5.22-.81-5.3-.8-5.28-.81-5.23-.8-5.23-.74-5.29-.8-5.29-.8-5.16L33.91,148l-.8-5.29-.81-5.23-.8-5.23-.8-5.29-.81-5.29-.73-5.16-.81-5.29-.8-5.29L25.94,95.43l-.8-5.3-.81-5.29-1.6-10.45-.81-5.29-.74-5.23-.8-5.22-.8-5.3-.81-5.22L18,43.31v-.47A3.39,3.39,0,0,1,19,40.43Z"/><path class="cls-1" d="M64.89,61.4C51.91,74.16,40,67.45,40,67.45c.1.89,10.76,23.06,24.85-6.05"/><path class="cls-1" d="M74.65,291.15a10.31,10.31,0,0,1,5.2,8.47c.18,6.77-4.54,10.1-7.32,14.64-4,6.54-2.9,10.59-2.9,10.59S66.3,323,64.36,316a16.24,16.24,0,0,1-.54-6.06,28.35,28.35,0,0,1,2.42-9.31s-3.69.78-4.72,7.5a11.75,11.75,0,0,1-3.45-7,11,11,0,0,1,6.53-10.65c-7.14,1.64-12.22,7.69-14,12.1-2.24,5.57-1.64,10.53-1.28,14.83a21.8,21.8,0,0,1-1.57,10.22,13.36,13.36,0,0,0,6.84-5.93,17.88,17.88,0,0,0,1.87-5.38s-.3,2.84,1.58,8.05,3.57,6.89,4.6,10.65C64,340.1,61,345,61,345s11.74-2.18,17.07-12.4c4.72-9.08,2.78-14.53,2.78-14.53a14,14,0,0,1,3,4.48,11.77,11.77,0,0,1,.78,5S93,318.32,89,306.76c-2.72-8.11-8-13.43-14.34-15.61Z"/><path class="cls-1" d="M15.42,138.26l-6.66,1A3.34,3.34,0,0,0,6,141.8L.09,166.39a3.34,3.34,0,0,0,.63,2.86L24.1,198.81a1.34,1.34,0,0,0,2.38-1l-8.77-57.84A2,2,0,0,0,15.42,138.26Z"/><path class="cls-1" d="M102.08,138h6.74a3.34,3.34,0,0,1,3.1,2.08l9.53,23.44a3.33,3.33,0,0,1-.2,2.92l-18.69,32.73a1.34,1.34,0,0,1-2.5-.67V140A2,2,0,0,1,102.08,138Z"/></g></g></svg>